<?xml version="1.0" encoding="utf-8"?>
<!-- Generator: Adobe Illustrator 23.0.0, SVG Export Plug-In . SVG Version: 6.00 Build 0)  -->
<svg version="1.1" id="Layer_1" xmlns="http://www.w3.org/2000/svg" xmlns:xlink="http://www.w3.org/1999/xlink" x="0px" y="0px"
	 viewBox="0 0 512 512" style="enable-background:new 0 0 512 512;" xml:space="preserve">
<style type="text/css">
	.st0{fill:#0186CF;}
</style>
<path class="st0" d="M347.3,91c-33.8,0-65.2,10.2-91.3,27.7C229.8,101.2,198.4,91,164.7,91C73.9,91,0,164.9,0,255.6
	s73.9,164.6,164.7,164.6c33.8,0,65.2-10.2,91.3-27.7c26.2,17.5,57.6,27.7,91.3,27.7c90.8,0,164.7-73.9,164.7-164.6
	S438.1,91,347.3,91z M347.3,390.3c-49,0-92-26.3-115.6-65.6h17.3c8.3,0,15-6.7,15-15c0-8.3-6.7-15-15-15h-30.6
	c-1.9-6.1-3.3-12.4-4.3-18.8h58.9c8.3,0,15-6.7,15-15c0-8.3-6.7-15-15-15h-60c0.5-6.4,1.4-12.7,2.7-18.8h33.3c8.3,0,15-6.7,15-15
	c0-8.3-6.7-15-15-15h-23c21.8-45,68-76.1,121.2-76.1c74.3,0,134.7,60.4,134.7,134.6S421.6,390.3,347.3,390.3z"/>
</svg>
